<?xml version="1.0" encoding="utf-8"?>
<!-- Generator: Adobe Illustrator 18.1.1, SVG Export Plug-In . SVG Version: 6.00 Build 0)  -->
<svg version="1.1" id="Layer_1" xmlns="http://www.w3.org/2000/svg" xmlns:xlink="http://www.w3.org/1999/xlink" x="0px" y="0px"
	 viewBox="0 0 170 60" enable-background="new 0 0 170 60" xml:space="preserve" width="170px">
<g>
	<g>
		<g>
			<g>
				<polygon fill="#FF6666" points="169.8,52.8 167.6,48.5 160.2,34.3 167.6,20.2 169.8,16.1 144.4,16.1 144.4,52.8 				"/>
			</g>
			<g>
				<polygon fill="#FF6666" points="0,52.8 25.1,52.8 25.1,16.1 0,16.1 2.2,20.3 9.6,34.6 2.2,48.7 				"/>
			</g>
		</g>
		<g>
			<polygon fill="#FF4040" points="25.1,32.7 25.1,52.8 38.1,39.8 28,29.7 			"/>
		</g>
		<g>
			<polygon fill="#FF4040" points="144.4,32.7 134.3,42.7 144.4,52.8 			"/>
		</g>
		<g>
			<rect x="25.1" y="9.6" fill="#FF8C8C" width="119.2" height="36.7"/>
		</g>
	</g>
	<g>
		<g>
			<path fill="#FF4040" d="M42.3,42.3V16.1h5.9c1.9,0,3.3,0.6,4.2,1.7c0.8,1.1,1.3,2.8,1.3,5v11.8c0,2.6-0.4,4.6-1.3,5.8
				c-0.8,1.2-2.3,1.8-4.3,1.8L42.3,42.3L42.3,42.3z M46.3,39.2h1.3c0.7,0,1.3-0.2,1.6-0.7c0.4-0.5,0.5-1.3,0.5-2.6V22.9
				c0-1.3-0.1-2.3-0.5-2.9c-0.4-0.6-0.9-0.8-1.7-0.8h-1.3V39.2z"/>
		</g>
		<g>
			<path fill="#FF4040" d="M62.5,30l-1.3-0.1v12.3h-4V16.1h6.6c1.3,0,2.4,0.3,3,0.8c0.7,0.6,1.1,1.3,1.3,2.3c0.2,1,0.4,2.3,0.4,3.9
				c0,1.6-0.1,2.8-0.5,3.7s-1,1.4-1.9,1.7c0.9,0.1,1.6,0.8,1.9,1.8s0.6,3.2,0.6,6.6c0,3.4,0.1,5.1,0.1,5.4h-4
				c-0.1-0.2-0.1-3.3-0.1-9.4c0-1.1-0.1-1.9-0.4-2.3C63.9,30.2,63.4,30,62.5,30z M61.3,26.8h1.6c0.5,0,0.8-0.1,1.1-0.4
				c0.2-0.2,0.4-0.6,0.5-1.2c0.1-0.6,0.1-1.4,0.1-2.5v-0.1c0-1.4-0.1-2.3-0.4-2.8c-0.2-0.4-0.8-0.6-1.6-0.6h-1.3L61.3,26.8
				L61.3,26.8z"/>
		</g>
		<g>
			<path fill="#FF4040" d="M81.9,40.7c-0.9,1.2-2.3,1.8-4.2,1.8c-1.9,0-3.4-0.6-4.3-1.9S72,37.5,72,35.1V23.6c0-3.9,1-6.3,3-7.3
				c0.8-0.4,1.7-0.6,2.8-0.6c3.7,0,5.5,2.3,5.5,7v3.6h-3.9v-3.3c0-1.3-0.1-2.3-0.4-2.9s-0.7-0.8-1.3-0.8c-0.6,0-1.1,0.3-1.4,0.9
				s-0.4,1.6-0.4,2.8v12.2c0,1.4,0.1,2.4,0.4,3c0.3,0.6,0.7,0.9,1.3,0.9s1.1-0.3,1.3-0.9c0.2-0.6,0.4-1.6,0.4-3v-3.7h3.9v3.7
				C83.3,37.7,82.9,39.5,81.9,40.7z"/>
		</g>
		<g>
			<path fill="#FF4040" d="M86.7,42.3V16.1h4v26.2H86.7z"/>
		</g>
		<g>
			<path fill="#FF4040" d="M94.2,34.9v-2.3H98v2.6c0,1.5,0.1,2.5,0.4,3.1c0.3,0.6,0.7,0.9,1.4,0.9c0.7,0,1.1-0.2,1.3-0.7
				c0.2-0.5,0.4-1.3,0.4-2.4c0-1.1-0.2-2-0.6-2.9c-0.4-0.8-1.1-1.7-1.9-2.5l-1.9-2c-0.9-0.9-1.6-1.9-2.1-3c-0.5-1-0.8-2.2-0.8-3.5
				c0-2.2,0.4-3.7,1.3-4.8c0.8-1.1,2.3-1.6,4.3-1.6c2,0,3.4,0.6,4.1,1.8c0.7,1.2,1.1,3,1.1,5.4v1.6h-3.7v-1.9c0-1.3-0.1-2.2-0.4-2.8
				c-0.2-0.6-0.6-0.8-1.3-0.8s-1.1,0.2-1.3,0.6c-0.3,0.4-0.4,1.1-0.4,1.9s0.1,1.5,0.4,2c0.3,0.5,0.8,1.1,1.5,1.9l2.2,2.3
				c1.1,1.2,1.9,2.3,2.5,3.5c0.6,1.2,0.8,2.5,0.8,4c0,2.5-0.4,4.2-1.2,5.4c-0.8,1.2-2.3,1.8-4.3,1.8c-2,0-3.5-0.6-4.3-2
				C94.6,39.3,94.2,37.4,94.2,34.9z"/>
		</g>
		<g>
			<path fill="#FF4040" d="M107.7,34.9v-2.3h3.8v2.6c0,1.5,0.1,2.5,0.4,3.1c0.3,0.6,0.7,0.9,1.4,0.9c0.7,0,1.1-0.2,1.3-0.7
				c0.2-0.5,0.4-1.3,0.4-2.4c0-1.1-0.2-2-0.6-2.9c-0.4-0.8-1.1-1.7-1.9-2.5l-1.9-2c-0.9-0.9-1.6-1.9-2.1-3c-0.5-1-0.8-2.2-0.8-3.5
				c0-2.2,0.4-3.7,1.3-4.8c0.8-1.1,2.3-1.6,4.3-1.6c2,0,3.4,0.6,4.1,1.8c0.7,1.2,1.1,3,1.1,5.4v1.6h-3.7v-1.9c0-1.3-0.1-2.2-0.4-2.8
				c-0.2-0.6-0.6-0.8-1.3-0.8s-1.1,0.2-1.3,0.6c-0.3,0.4-0.4,1.1-0.4,1.9s0.1,1.5,0.4,2c0.3,0.5,0.8,1.1,1.5,1.9l2.2,2.3
				c1.1,1.2,1.9,2.3,2.5,3.5c0.6,1.2,0.8,2.5,0.8,4c0,2.5-0.4,4.2-1.2,5.4c-0.8,1.2-2.3,1.8-4.3,1.8s-3.5-0.6-4.3-2
				C108.1,39.3,107.7,37.4,107.7,34.9z"/>
		</g>
		<g>
			<path fill="#FF4040" d="M123,42.3V19.5h-3v-3.5h9.9v3.5h-3v22.7H123z"/>
		</g>
	</g>
	<g>
		<g>
			<path fill="#FFFFFF" d="M41,40.8V14.6h5.9c1.9,0,3.3,0.6,4.2,1.7c0.8,1.1,1.3,2.8,1.3,5v11.8c0,2.6-0.4,4.6-1.3,5.8
				c-0.8,1.2-2.3,1.8-4.3,1.8L41,40.8L41,40.8z M45,37.7h1.3c0.7,0,1.3-0.2,1.6-0.7c0.4-0.5,0.5-1.3,0.5-2.6V21.4
				c0-1.3-0.1-2.3-0.5-2.9s-0.9-0.8-1.7-0.8H45L45,37.7L45,37.7z"/>
		</g>
		<g>
			<path fill="#FFFFFF" d="M61.2,28.5l-1.3-0.1v12.3h-4V14.6h6.6c1.3,0,2.4,0.3,3,0.8c0.7,0.6,1.1,1.3,1.3,2.3
				c0.2,1,0.4,2.3,0.4,3.9c0,1.6-0.1,2.8-0.5,3.7c-0.4,0.8-1,1.4-1.9,1.7c0.9,0.1,1.6,0.8,1.9,1.8c0.4,1.1,0.6,3.2,0.6,6.6
				c0,3.4,0.1,5.1,0.1,5.4h-4c-0.1-0.2-0.1-3.3-0.1-9.4c0-1.1-0.1-1.9-0.4-2.3C62.6,28.7,62,28.5,61.2,28.5z M59.9,25.3h1.6
				c0.5,0,0.8-0.1,1.1-0.4c0.2-0.2,0.4-0.6,0.5-1.2c0.1-0.6,0.1-1.4,0.1-2.5v-0.1c0-1.4-0.1-2.3-0.4-2.8c-0.2-0.4-0.8-0.6-1.6-0.6
				H60L59.9,25.3L59.9,25.3z"/>
		</g>
		<g>
			<path fill="#FFFFFF" d="M80.7,39.3c-0.9,1.2-2.3,1.8-4.2,1.8s-3.4-0.6-4.3-1.9c-0.9-1.3-1.4-3.2-1.4-5.6V22.2c0-3.9,1-6.3,3-7.3
				c0.8-0.4,1.7-0.6,2.8-0.6c3.7,0,5.5,2.3,5.5,7V25h-3.9v-3.3c0-1.3-0.1-2.3-0.4-2.9c-0.2-0.6-0.7-0.8-1.3-0.8s-1.1,0.3-1.4,0.9
				c-0.3,0.6-0.4,1.6-0.4,2.8v12.1c0,1.4,0.1,2.4,0.4,3c0.3,0.6,0.7,0.9,1.3,0.9s1.1-0.3,1.3-0.9s0.4-1.6,0.4-3V30h3.9v3.7
				C82,36.2,81.6,38,80.7,39.3z"/>
		</g>
		<g>
			<path fill="#FFFFFF" d="M85.4,40.8V14.6h4v26.2H85.4z"/>
		</g>
		<g>
			<path fill="#FFFFFF" d="M92.9,33.4v-2.3h3.8v2.6c0,1.5,0.1,2.5,0.4,3.1c0.3,0.6,0.7,0.9,1.4,0.9s1.1-0.2,1.3-0.7
				c0.2-0.5,0.4-1.3,0.4-2.4c0-1.1-0.2-2-0.6-2.9c-0.4-0.8-1.1-1.7-1.9-2.5l-1.9-2c-0.9-0.9-1.6-1.9-2.1-3c-0.5-1-0.8-2.2-0.8-3.5
				c0-2.2,0.4-3.7,1.3-4.8c0.8-1.1,2.3-1.6,4.3-1.6s3.4,0.6,4.1,1.8c0.7,1.2,1.1,3,1.1,5.4v1.6H100v-1.9c0-1.3-0.1-2.2-0.4-2.8
				c-0.2-0.6-0.6-0.8-1.3-0.8s-1.1,0.2-1.3,0.6c-0.3,0.4-0.4,1.1-0.4,1.9s0.1,1.5,0.4,2c0.3,0.5,0.8,1.1,1.5,1.9l2.2,2.3
				c1.1,1.2,1.9,2.3,2.5,3.5c0.6,1.2,0.8,2.5,0.8,4c0,2.5-0.4,4.2-1.2,5.4c-0.8,1.2-2.3,1.8-4.3,1.8s-3.5-0.6-4.3-2
				C93.4,37.8,92.9,35.9,92.9,33.4z"/>
		</g>
		<g>
			<path fill="#FFFFFF" d="M106.4,33.4v-2.3h3.8v2.6c0,1.5,0.1,2.5,0.4,3.1c0.3,0.6,0.7,0.9,1.4,0.9c0.7,0,1.1-0.2,1.3-0.7
				c0.2-0.5,0.4-1.3,0.4-2.4c0-1.1-0.2-2-0.6-2.9c-0.4-0.8-1.1-1.7-1.9-2.5l-1.9-2c-0.9-0.9-1.6-1.9-2.1-3c-0.5-1-0.8-2.2-0.8-3.5
				c0-2.2,0.4-3.7,1.3-4.8c0.8-1.1,2.3-1.6,4.3-1.6c2,0,3.4,0.6,4.1,1.8c0.7,1.2,1.1,3,1.1,5.4v1.6h-3.7v-1.9c0-1.3-0.1-2.2-0.4-2.8
				c-0.2-0.6-0.6-0.8-1.3-0.8s-1.1,0.2-1.3,0.6c-0.3,0.4-0.4,1.1-0.4,1.9s0.1,1.5,0.4,2c0.3,0.5,0.8,1.1,1.5,1.9l2.2,2.3
				c1.1,1.2,1.9,2.3,2.5,3.5c0.6,1.2,0.8,2.5,0.8,4c0,2.5-0.4,4.2-1.2,5.4c-0.8,1.2-2.3,1.8-4.3,1.8c-2,0-3.5-0.6-4.3-2
				C106.8,37.8,106.4,35.9,106.4,33.4z"/>
		</g>
		<g>
			<path fill="#FFFFFF" d="M121.7,40.8V18.1h-3v-3.5h9.9v3.5h-3v22.7H121.7z"/>
		</g>
	</g>
</g>
</svg>
