<?xml version="1.0" encoding="utf-8"?>
<!-- Generator: Adobe Illustrator 18.1.1, SVG Export Plug-In . SVG Version: 6.00 Build 0)  -->
<svg version="1.1" id="Layer_1" xmlns="http://www.w3.org/2000/svg" xmlns:xlink="http://www.w3.org/1999/xlink" x="0px" y="0px"
	 viewBox="0 0 244.3 244.4" enable-background="new 0 0 244.3 244.4" xml:space="preserve">
<g>
	<circle id="Back_4_" fill="#FFFFFF" cx="122.6" cy="122.2" r="103.3"/>
	<g id="Circle_4_">
		<path fill="#DDDDDD" d="M228.3,133.2l-15.9-11l-0.1,0.1h0c0,49.8-40.4,90.2-90.2,90.2c-49.8,0-90.2-40.4-90.2-90.2h0l-0.1-0.1
			l-15.9,11l-15.9-11L0,122.3c0,67.5,54.7,122.1,122.1,122.1c67.5,0,122.1-54.7,122.1-122.1l-0.1-0.1L228.3,133.2z"/>
		<path fill="#BBBBBB" d="M122.1,0C54.7,0,0,54.7,0,122.1l0.1,0.1l15.9,11l15.9-11l0.1-0.1h0C32,72.3,72.3,32,122.1,32
			c49.8,0,90.2,40.4,90.2,90.2h0l0.1,0.1l15.9,11l15.9-11l0.1-0.1C244.3,54.7,189.6,0,122.1,0z"/>
	</g>
	<g id="Shapes_4_">
		<g>
			<g>
				<polygon fill="#FFDD50" points="163.4,171 163.4,161 154.7,166.1 149.9,157.7 158.5,152.6 149.9,147.6 154.7,139.2 163.4,144.2 
					163.4,134.2 173.1,134.2 173.1,144.1 181.7,139.2 186.6,147.6 178.1,152.5 186.6,157.6 181.8,165.9 173.1,161 173.1,171 				"/>
				<path fill="#FFDD50" d="M173.2,171.1h-9.9v-9.9l-8.6,5l-5-8.5l8.5-5l-8.5-5l5-8.5l8.6,4.9v-9.9h9.9v9.8l8.6-4.8l5,8.5l-8.4,4.9
					l8.4,5.1l-4.9,8.5l-0.1,0l-8.5-4.9L173.2,171.1z M163.5,170.9h9.5l0-10.2l8.7,5l4.7-8.2l-8.5-5.1l8.5-4.9l-4.8-8.2l-8.7,4.9
					v-9.9h-9.5v10l-8.7-5l-4.8,8.2l8.7,5.1l-8.7,5.1l4.8,8.2l8.7-5.1V170.9z"/>
			</g>
		</g>
		<path fill="#3470C6" d="M137,148.5c0-2.4,0.6-4.7,1.9-6.7l0-0.1l-6.5-7.3l-0.1-0.1l-0.1,0.1c-1.4,1.3-3.1,2-4.9,2
			c-1.8,0-3.5-0.7-4.9-2l-0.1-0.1l-0.1,0.1c-1.4,1.3-3.1,2-4.9,2c-1.8,0-3.5-0.7-4.9-2l-0.1-0.1l-6.6,7.4l0,0.1
			c1.2,2,1.9,4.3,1.9,6.7c0,1.7-0.3,3.4-1,5c-0.6,1.4-0.9,2.9-0.9,4.4c0,5.6,4.1,10.2,9.1,10.2h1.4c2.3,0,4.4,1.1,5.8,3.1l0.1,0.1
			l0.1-0.1c1.4-2,3.6-3.1,5.8-3.1h1.4c5,0,9.1-4.6,9.1-10.2c0-1.5-0.3-3-0.9-4.4C137.3,151.9,137,150.2,137,148.5z"/>
		<g>
			<path fill="#FF4040" d="M76.8,171.6c-0.1,0-0.2,0-0.3,0c-0.7-0.3-1.5-0.5-2.2-0.9c-0.9-0.4-1.7-0.9-2.5-1.4
				c-0.8-0.5-1.6-0.8-2.5-1c-0.8-0.2-1.6-0.4-2.3-0.7c-1.1-0.4-1.4-1.3-1-2.4c0.1-0.3,0.3-0.6,0.5-0.8c0.6-0.7,1.3-1.4,1.9-2.1
				c0.2-0.2,0.4-0.4,0.5-0.6c0.2-0.3,0.1-0.6-0.2-0.7c-0.3-0.2-0.5-0.3-0.7,0c-0.4,0.4-0.8,0.8-1.1,1.2c-0.6,0.6-1.2,1.2-1.9,1.8
				c-0.9,0.7-1.9,0.5-2.5-0.5c-0.3-0.6-0.6-1.2-0.7-1.8c-0.3-1.1-0.7-2.1-1.4-3c-1.1-1.6-2.3-3.1-2.7-5c0-0.4,0-0.8,0-1.1
				c0.2-1.3,1-2.4,1.6-3.6c0.8-1.6,1.5-3.2,1.9-5c0.1-0.4,0.2-0.9,0.4-1.3c0.4-0.7,1-1,1.7-0.7c0.6,0.3,1.2,0.6,1.8,1.1
				c0.7,0.6,1.4,1.2,2.1,1.8c0.3,0.2,0.5,0.2,0.7,0c0.3-0.3,0.3-0.5,0-0.7c-0.1-0.1-0.2-0.2-0.3-0.3c-0.8-0.8-1.6-1.5-2.3-2.3
				c-1-1.2-0.7-2.3,0.8-2.9c0.1,0,0.1-0.1,0.2-0.1c2.5-0.7,4.7-2,6.8-3.5c1.3-0.9,2.7-1.2,4.2-0.7c0.9,0.3,1.9,0.7,2.7,1.2
				c1.5,0.9,3,1.5,4.7,1.9c0.7,0.2,1.3,0.4,1.9,0.8c0.7,0.4,0.9,1,0.6,1.8c-0.1,0.3-0.3,0.7-0.5,0.9c-0.4,0.5-0.8,1-1.2,1.5
				c-0.3,0.4-0.7,0.7-1,1.1c-0.2,0.3-0.3,0.6,0,0.9c0.3,0.2,0.6,0.2,0.9-0.1c0.1-0.1,0.1-0.2,0.2-0.3c0.9-0.9,1.7-1.8,2.7-2.6
				c1-0.9,2.2-0.6,2.8,0.6c0.2,0.4,0.4,0.9,0.5,1.4c0.3,1.2,0.8,2.2,1.5,3.2c0.2,0.3,0.4,0.7,0.7,1c0.7,1.1,1.4,2.1,1.7,3.3
				c0.3,1.2,0.4,2.4-0.4,3.4c-1.4,2.1-2.4,4.5-2.9,7c-0.1,0.4-0.2,0.8-0.3,1.1c-0.4,1-1.2,1.2-2.1,0.7c-0.5-0.2-0.9-0.6-1.3-0.9
				c-0.7-0.6-1.3-1.2-2-1.8c-0.3-0.2-0.6-0.4-0.8-0.6c-0.3,0.2-0.5,0.4-0.7,0.6c-0.3,0.2-0.3,0.4,0,0.7c0.5,0.4,1,0.8,1.4,1.3
				c0.6,0.6,1.2,1.2,1.6,1.9c0.7,1.1,0.3,2.1-0.8,2.6c-0.3,0.1-0.5,0.2-0.8,0.3c-0.9,0.4-1.9,0.6-2.8,1.1c-0.8,0.4-1.5,1-2.3,1.5
				c-1.1,0.7-2.2,1.4-3.5,1.6C77.4,171.4,77.1,171.5,76.8,171.6z"/>
		</g>
	</g>
	<rect id="Line_Right_4_" x="146.9" y="117.9" fill="#FF4040" width="43.9" height="3.1"/>
	<rect id="Line_Left_4_" x="53.4" y="117.9" fill="#FF4040" width="43.9" height="3.1"/>
</g>
<g>
	<path d="M20.6,97.9c1.7,0.3,2.9,1.1,3.6,2.2c0.7,1.1,0.9,2.6,0.5,4.4l-0.6,2.9l-10.2-2l0.6-3.2c0.3-1.7,1-2.9,2.1-3.6
		C17.7,97.8,19,97.5,20.6,97.9z M20.2,100.1c-2.2-0.4-3.5,0.3-3.9,2.2l-0.2,1.1l6.6,1.3l0.2-0.9C23.4,101.8,22.4,100.5,20.2,100.1z"
		/>
	<path d="M19.1,85.2l6.4,2c0.7,0.2,1.3,0.6,1.8,1.1c0.4,0.5,0.7,1.1,0.8,1.8c0.1,0.7,0,1.5-0.3,2.3c-0.4,1.3-1,2.2-1.9,2.7
		s-1.9,0.6-3,0.2l-6.4-2l0.7-2.1l6.1,1.9c0.8,0.2,1.4,0.3,1.8,0.1c0.5-0.2,0.8-0.6,1-1.4c0.2-0.7,0.2-1.2-0.1-1.7
		c-0.3-0.4-0.8-0.8-1.5-1l-6-1.9L19.1,85.2z"/>
	<path d="M27.4,81.9l3.6,1.6l-0.9,2l-9.5-4.2l1.2-2.8c0.6-1.3,1.2-2.1,2-2.6c0.7-0.4,1.6-0.4,2.6,0c0.6,0.2,1,0.6,1.3,1.1
		c0.3,0.5,0.4,1.1,0.4,1.8c2.8-0.5,4.6-0.8,5.4-1l-1,2.2l-4.6,0.7L27.4,81.9z M25.7,81.2l0.3-0.7c0.3-0.6,0.4-1.2,0.3-1.5
		c-0.1-0.4-0.3-0.7-0.8-0.9c-0.5-0.2-0.8-0.2-1.2,0c-0.3,0.2-0.6,0.7-0.9,1.3L23.2,80L25.7,81.2z"/>
	<path d="M38.6,69l-1.1,1.9l-3.9-2.2l-2.1,3.6l3.9,2.2l-1.1,1.9l-9-5.2l1.1-1.9l3.5,2l2.1-3.6l-3.5-2l1.1-1.9L38.6,69z"/>
	<path d="M44.1,61.3l-2.4-0.9l-2.2,3l1.5,2.1l-1.4,1.9l-6.2-9.1l1.6-2.2l10.6,3.2L44.1,61.3z M39.9,59.8c-2.2-0.8-3.5-1.2-3.8-1.3
		c-0.3-0.1-0.5-0.2-0.7-0.3c0.4,0.5,1.3,1.7,2.8,3.8L39.9,59.8z"/>
	<path d="M49.6,54.8L42,51l0,0c1.3,1.1,2.1,1.8,2.5,2.2l3.5,3.3L46.6,58l-7.5-7.2l2.1-2.2l7.4,3.7l0,0l-4-7.4l2.1-2.2l7.5,7.2
		l-1.4,1.5l-3.6-3.4c-0.2-0.2-0.4-0.3-0.6-0.6c-0.2-0.2-0.8-0.8-1.7-1.7l0,0l4,7.5L49.6,54.8z"/>
	<path d="M59.3,40.7l2.4,3.2l-1.8,1.3l-6.2-8.3l2.4-1.8c1.1-0.8,2.1-1.3,3-1.3c0.9,0,1.6,0.4,2.2,1.3c0.4,0.5,0.6,1,0.6,1.6
		c0,0.6-0.1,1.2-0.5,1.8c2.7,0.9,4.4,1.5,5.2,1.8l-2,1.5l-4.4-1.7L59.3,40.7z M58.2,39.2l0.6-0.4c0.6-0.4,0.9-0.8,1-1.2
		c0.1-0.4,0-0.8-0.3-1.2c-0.3-0.4-0.6-0.6-1-0.5c-0.4,0-0.9,0.3-1.4,0.7L56.5,37L58.2,39.2z"/>
	<path d="M73.2,36.1l-5.1,3.1l-5.4-8.9l5.1-3.1l0.9,1.5l-3.2,2l1.2,1.9l3-1.8l0.9,1.5l-3,1.8l1.4,2.3l3.2-2L73.2,36.1z"/>
	<path d="M76.6,27.9l3.7-1.8l2.3,4.8c-0.5,0.5-1,0.9-1.5,1.2c-0.5,0.3-1,0.6-1.6,0.9c-1.4,0.7-2.7,0.8-3.8,0.3
		c-1.1-0.5-2.1-1.5-2.8-3c-0.7-1.5-0.9-2.9-0.4-4.2c0.5-1.3,1.5-2.3,3-3c1-0.5,2-0.7,3.1-0.8l0.1,1.9c-0.8,0-1.6,0.2-2.4,0.5
		c-0.9,0.4-1.4,1-1.6,1.9s-0.1,1.7,0.3,2.7c0.5,1,1.1,1.7,1.7,2c0.7,0.3,1.4,0.3,2.2-0.1c0.4-0.2,0.8-0.4,1.2-0.7l-0.9-2l-1.8,0.9
		L76.6,27.9z"/>
	<path d="M85.6,30.2l-3.7-9.7l2.1-0.8l3.7,9.7L85.6,30.2z"/>
	<path d="M98.2,20.7c0.5,1.7,0.4,3-0.1,4.2s-1.6,1.9-3.1,2.3c-1.5,0.4-2.8,0.3-3.9-0.3c-1.1-0.7-1.9-1.8-2.3-3.5
		c-0.5-1.7-0.4-3,0.1-4.2c0.6-1.1,1.6-1.9,3.2-2.3c1.5-0.4,2.8-0.3,3.9,0.3S97.7,19,98.2,20.7z M90.9,22.8c0.3,1.1,0.8,1.9,1.4,2.3
		s1.3,0.5,2.1,0.3c1.7-0.5,2.2-1.9,1.6-4.1c-0.6-2.2-1.8-3.1-3.5-2.6c-0.8,0.2-1.4,0.7-1.7,1.4S90.6,21.7,90.9,22.8z"/>
	<path d="M111.3,23.7l-2.8,0.4l-5.7-7l-0.1,0c0.3,1.4,0.5,2.3,0.6,2.9l0.8,4.8l-1.9,0.3l-1.6-10.2l2.7-0.4l5.7,7l0,0
		c-0.3-1.3-0.5-2.3-0.6-2.8l-0.8-4.9l2-0.3L111.3,23.7z"/>
	<path d="M123.1,14.5c-0.8,0-1.5,0.3-1.9,0.9c-0.5,0.6-0.7,1.5-0.7,2.6c0,2.3,0.9,3.5,2.6,3.5c0.7,0,1.6-0.2,2.6-0.6l0,1.8
		c-0.9,0.4-1.8,0.5-2.9,0.5c-1.5,0-2.7-0.4-3.5-1.4c-0.8-0.9-1.2-2.2-1.2-3.9c0-1.1,0.2-2,0.6-2.8c0.4-0.8,1-1.4,1.7-1.9
		s1.6-0.7,2.6-0.7c1,0,2,0.2,3,0.7l-0.7,1.8c-0.4-0.2-0.8-0.3-1.2-0.5C123.9,14.5,123.5,14.5,123.1,14.5z"/>
	<path d="M131.1,19.5l-0.4,4l-2.2-0.2l1-10.3l3,0.3c1.4,0.1,2.4,0.5,3,1.1s0.9,1.4,0.8,2.4c-0.1,0.6-0.3,1.1-0.7,1.6
		c-0.4,0.4-0.9,0.8-1.5,1c1.3,2.5,2.2,4.1,2.6,4.8l-2.4-0.2l-2.1-4.2L131.1,19.5z M131.2,17.8l0.7,0.1c0.7,0.1,1.2,0,1.6-0.2
		c0.4-0.2,0.6-0.5,0.6-1c0-0.5-0.1-0.9-0.4-1.1c-0.3-0.2-0.8-0.4-1.5-0.5l-0.7-0.1L131.2,17.8z"/>
	<path d="M138.5,24.5l1.8-10.2l2.2,0.4l-1.8,10.2L138.5,24.5z"/>
	<path d="M147.7,26.5l-2.1-0.5l2.1-8.3l-2.7-0.7l0.5-1.8l7.6,1.9l-0.4,1.8l-2.7-0.7L147.7,26.5z"/>
	<path d="M152.5,27.9l3.3-9.9l2.1,0.7l-3.3,9.9L152.5,27.9z"/>
	<path d="M165,23.3c-0.8-0.3-1.5-0.3-2.1,0.1s-1.2,1.1-1.6,2.1c-0.9,2.1-0.5,3.5,1.1,4.2c0.7,0.3,1.6,0.5,2.7,0.5l-0.7,1.7
		c-0.9,0-1.9-0.2-2.8-0.6c-1.4-0.6-2.3-1.5-2.7-2.6c-0.4-1.2-0.2-2.5,0.4-4.1c0.4-1,1-1.8,1.6-2.4c0.7-0.6,1.4-1,2.3-1.1
		s1.7,0,2.6,0.4c0.9,0.4,1.8,1,2.5,1.8l-1.3,1.4c-0.3-0.3-0.6-0.6-0.9-0.9C165.7,23.6,165.4,23.4,165,23.3z"/>
	<path d="M172.1,36.5l0.5-2.5l-3.3-1.8l-1.8,1.8l-2.1-1.1l8.2-7.4l2.4,1.3l-1.7,10.9L172.1,36.5z M173,32.1c0.5-2.3,0.7-3.6,0.8-3.9
		c0.1-0.3,0.1-0.5,0.2-0.7c-0.4,0.5-1.5,1.6-3.3,3.3L173,32.1z"/>
	<path d="M175.7,38.7l5.8-8.6l1.8,1.2l-4.8,7.1l3.5,2.4l-1,1.5L175.7,38.7z"/>
	<path d="M186.3,46.5l6.8-7.9l1.7,1.4l-6.8,7.9L186.3,46.5z"/>
	<path d="M196.8,56.5l-2-2l2.5-8.7l0,0c-0.9,1-1.6,1.8-2,2.2l-3.5,3.4l-1.4-1.4l7.4-7.2l1.9,2l-2.4,8.7l0,0c0.9-1,1.6-1.7,2-2.1
		l3.5-3.4l1.4,1.4L196.8,56.5z"/>
	<path d="M208.3,57c-0.5-0.7-1.1-1-1.9-0.9c-0.8,0-1.6,0.4-2.5,1.1c-1.8,1.4-2.2,2.8-1.1,4.2c0.4,0.6,1.1,1.2,2.1,1.8l-1.5,1.1
		c-0.8-0.5-1.5-1.1-2.2-1.9c-0.9-1.2-1.3-2.4-1-3.6c0.2-1.2,1-2.3,2.4-3.4c0.9-0.7,1.7-1.1,2.6-1.3c0.9-0.2,1.7-0.1,2.5,0.2
		c0.8,0.3,1.5,0.9,2.1,1.6c0.6,0.8,1,1.7,1.3,2.8l-1.8,0.5c-0.1-0.4-0.2-0.8-0.3-1.2C208.7,57.7,208.5,57.3,208.3,57z"/>
	<path d="M204.6,66.8l8.7-5.7l1.2,1.8l-8.7,5.7L204.6,66.8z"/>
	<path d="M216.3,76.3c-1.5,0.8-2.9,1-4.1,0.6c-1.3-0.4-2.3-1.4-3.2-3l-1.4-2.6l9.1-5l1.6,2.9c0.8,1.5,1,2.9,0.7,4.1
		C218.6,74.5,217.7,75.5,216.3,76.3z M215.2,74.3c2-1.1,2.5-2.5,1.5-4.2l-0.6-1l-5.9,3.2l0.5,0.8C211.7,75,213.2,75.4,215.2,74.3z"
		/>
	<path d="M215.1,86.7l-2.3-5.5l9.6-4l2.3,5.5l-1.7,0.7l-1.5-3.5l-2.1,0.9l1.4,3.2l-1.7,0.7l-1.4-3.2l-2.5,1l1.5,3.5L215.1,86.7z"/>
	<path d="M218.7,98l-0.8-2.7l6.2-6.6l0-0.1c-1.3,0.5-2.2,0.8-2.8,1l-4.7,1.4l-0.6-1.9l9.9-3l0.8,2.7l-6.1,6.6l0,0
		c1.3-0.5,2.2-0.8,2.7-0.9l4.7-1.4l0.6,1.9L218.7,98z"/>
	<path d="M220.1,104.9l-0.4-2.2l8.4-1.6l-0.5-2.8l1.8-0.3l1.5,7.7l-1.8,0.3l-0.5-2.8L220.1,104.9z"/>
</g>
<g>
	<g>
		<path d="M47.8,198.4c-0.7,0.6-1.5,0.8-2.3,0.7c-0.8-0.2-1.7-0.7-2.4-1.6c-0.7-0.8-1.2-1.7-1.4-2.6l1.6-1.3
			c0.2,0.7,0.4,1.3,0.6,1.8c0.2,0.5,0.5,0.8,0.7,1.1c0.3,0.4,0.6,0.6,0.9,0.7c0.3,0.1,0.6,0,0.9-0.2c0.2-0.1,0.3-0.3,0.3-0.5
			c0-0.2,0.1-0.4,0-0.7c0-0.3-0.1-0.8-0.3-1.5c-0.2-0.7-0.3-1.2-0.3-1.6s0.1-0.8,0.2-1.2c0.2-0.4,0.4-0.7,0.8-1
			c0.7-0.6,1.5-0.8,2.3-0.7c0.8,0.1,1.6,0.6,2.3,1.5c0.3,0.4,0.6,0.8,0.9,1.3c0.2,0.5,0.4,1,0.6,1.5l-1.8,0.6
			c-0.2-0.6-0.4-1-0.5-1.4c-0.2-0.3-0.4-0.6-0.6-0.9c-0.3-0.3-0.6-0.5-0.8-0.5c-0.3,0-0.6,0-0.8,0.2c-0.1,0.1-0.2,0.3-0.3,0.4
			c-0.1,0.2-0.1,0.4,0,0.6c0,0.2,0.1,0.7,0.3,1.5c0.3,1,0.4,1.8,0.2,2.4C48.6,197.4,48.3,197.9,47.8,198.4z"/>
		<path d="M50.6,205.3l-1.6-1.5l6-6.1l-2-2l1.3-1.3l5.6,5.5l-1.3,1.3l-2-2L50.6,205.3z"/>
		<path d="M59.1,207.5l-2.5,3.1l-1.7-1.4l6.5-8.1l2.4,1.9c1.1,0.9,1.8,1.7,2,2.6c0.2,0.8,0,1.6-0.7,2.5c-0.4,0.5-0.9,0.8-1.4,1
			c-0.6,0.2-1.2,0.2-1.8,0c-0.2,2.8-0.4,4.6-0.4,5.4l-1.9-1.5l0.6-4.7L59.1,207.5z M60.2,206.1l0.6,0.4c0.5,0.4,1,0.7,1.4,0.7
			c0.4,0,0.8-0.2,1.1-0.5c0.3-0.4,0.4-0.8,0.3-1.1c-0.1-0.4-0.5-0.8-1-1.2l-0.5-0.4L60.2,206.1z"/>
		<path d="M68.6,219.2l-5-3.3l5.7-8.7l5,3.3l-1,1.5l-3.2-2.1l-1.2,1.9l2.9,1.9l-1,1.5l-2.9-1.9l-1.5,2.2l3.2,2.1L68.6,219.2z"/>
		<path d="M78.3,221.2c-0.4,0.8-1.1,1.3-1.9,1.5s-1.8,0-2.9-0.6c-1-0.5-1.7-1.2-2.3-1.9l1-1.8c0.5,0.6,0.9,1.1,1.3,1.4
			c0.4,0.3,0.7,0.6,1.1,0.8c0.4,0.2,0.8,0.3,1.1,0.3c0.3,0,0.6-0.2,0.7-0.5c0.1-0.2,0.1-0.4,0.1-0.6c0-0.2-0.1-0.4-0.2-0.6
			s-0.4-0.7-0.9-1.3c-0.4-0.6-0.7-1-0.9-1.4c-0.2-0.4-0.2-0.8-0.2-1.2c0-0.4,0.1-0.8,0.3-1.3c0.4-0.8,1-1.3,1.8-1.5
			c0.8-0.2,1.7,0,2.7,0.5c0.5,0.3,0.9,0.6,1.3,0.9c0.4,0.3,0.7,0.7,1.1,1.2l-1.4,1.2c-0.4-0.5-0.7-0.8-1-1.1
			c-0.3-0.2-0.6-0.5-0.9-0.6c-0.4-0.2-0.7-0.3-1-0.2s-0.5,0.2-0.7,0.5c-0.1,0.2-0.1,0.3-0.1,0.5c0,0.2,0.1,0.4,0.2,0.6
			c0.1,0.2,0.4,0.6,0.9,1.3c0.6,0.9,1,1.6,1.1,2.2C78.7,220,78.6,220.6,78.3,221.2z"/>
		<path d="M86.6,224.8c-0.4,0.9-1,1.4-1.8,1.7c-0.8,0.2-1.8,0.1-2.9-0.3c-1-0.4-1.8-1-2.5-1.7l0.8-1.9c0.5,0.6,1,1,1.4,1.3
			c0.4,0.3,0.8,0.5,1.2,0.7c0.4,0.2,0.8,0.2,1.1,0.2c0.3-0.1,0.5-0.3,0.7-0.6c0.1-0.2,0.1-0.4,0.1-0.6s-0.1-0.4-0.3-0.6
			c-0.1-0.2-0.5-0.6-1-1.2c-0.5-0.5-0.8-1-1-1.3c-0.2-0.4-0.3-0.8-0.3-1.2c0-0.4,0-0.8,0.2-1.3c0.4-0.8,0.9-1.4,1.7-1.6
			c0.8-0.2,1.7-0.2,2.7,0.3c0.5,0.2,0.9,0.5,1.3,0.8c0.4,0.3,0.8,0.7,1.2,1.1l-1.3,1.3c-0.4-0.4-0.8-0.7-1.1-1
			c-0.3-0.2-0.6-0.4-0.9-0.5c-0.4-0.2-0.7-0.2-1-0.1c-0.3,0.1-0.5,0.3-0.6,0.6c-0.1,0.2-0.1,0.4-0.1,0.5c0,0.2,0.1,0.4,0.2,0.6
			c0.1,0.2,0.5,0.6,1,1.2c0.7,0.8,1.1,1.5,1.3,2.1C86.9,223.6,86.8,224.2,86.6,224.8z"/>
		<path d="M99.7,228.8c-0.2,0.9-0.8,1.5-1.6,1.9c-0.8,0.3-1.8,0.4-2.9,0c-1.1-0.3-2-0.7-2.7-1.4l0.5-2c0.6,0.5,1.1,0.9,1.5,1.1
			c0.4,0.2,0.8,0.4,1.2,0.5c0.5,0.1,0.8,0.1,1.1,0c0.3-0.1,0.5-0.3,0.6-0.7c0.1-0.2,0-0.4,0-0.6c-0.1-0.2-0.2-0.4-0.4-0.6
			c-0.2-0.2-0.5-0.5-1.1-1c-0.5-0.5-0.9-0.9-1.2-1.2c-0.2-0.3-0.4-0.7-0.5-1.1c-0.1-0.4-0.1-0.8,0.1-1.3c0.2-0.9,0.7-1.5,1.5-1.8
			c0.7-0.3,1.6-0.4,2.7-0.1c0.5,0.1,1,0.3,1.4,0.6c0.4,0.2,0.9,0.6,1.3,0.9l-1.1,1.5c-0.5-0.4-0.9-0.6-1.2-0.8
			c-0.3-0.2-0.7-0.3-1-0.4c-0.4-0.1-0.7-0.1-1,0c-0.3,0.1-0.4,0.3-0.5,0.6c-0.1,0.2-0.1,0.4,0,0.5c0,0.2,0.2,0.3,0.3,0.5
			c0.2,0.2,0.5,0.5,1.2,1.1c0.8,0.7,1.3,1.3,1.6,1.9C99.8,227.5,99.8,228.1,99.7,228.8z"/>
		<path d="M112.1,223.4L111,230c-0.1,0.8-0.4,1.4-0.8,1.9s-1,0.9-1.7,1.1c-0.7,0.2-1.5,0.2-2.3,0.1c-1.3-0.2-2.3-0.7-2.9-1.5
			c-0.6-0.8-0.8-1.8-0.7-2.9l1.1-6.6l2.2,0.3l-1,6.3c-0.1,0.8-0.1,1.4,0.2,1.8c0.3,0.4,0.8,0.7,1.5,0.8c0.7,0.1,1.3,0,1.6-0.3
			c0.4-0.3,0.6-0.9,0.8-1.7l1-6.3L112.1,223.4z"/>
		<path d="M121.9,227.1c-0.1,1.1-0.4,2-1.2,2.5c-0.7,0.6-1.7,0.8-3,0.7l-0.9,0l-0.2,3.7l-2.2-0.1l0.5-10.4l3.3,0.2
			c1.3,0.1,2.2,0.4,2.8,0.9C121.6,225.3,121.9,226.1,121.9,227.1z M116.8,228.6l0.7,0c0.7,0,1.2-0.1,1.5-0.3
			c0.3-0.3,0.5-0.6,0.6-1.1c0-0.5-0.1-0.9-0.4-1.2c-0.3-0.3-0.7-0.4-1.3-0.4l-1,0L116.8,228.6z"/>
		<path d="M131.6,226.7c0.1,1.1-0.2,2-0.9,2.6c-0.7,0.6-1.6,1-2.9,1.1l-0.9,0.1l0.2,3.7l-2.2,0.1l-0.6-10.4l3.3-0.2
			c1.3-0.1,2.2,0.1,2.9,0.7C131.2,224.8,131.5,225.6,131.6,226.7z M126.7,228.6l0.7,0c0.7,0,1.2-0.2,1.5-0.5
			c0.3-0.3,0.5-0.7,0.4-1.2c0-0.5-0.2-0.9-0.5-1.1s-0.7-0.3-1.3-0.3l-1,0.1L126.7,228.6z"/>
		<path d="M143.8,226.8c0.3,1.7,0.1,3.1-0.6,4.1c-0.7,1.1-1.8,1.7-3.4,2c-1.6,0.3-2.8,0-3.8-0.7c-1-0.8-1.6-2-1.9-3.7
			c-0.3-1.7-0.1-3.1,0.6-4.1c0.7-1,1.8-1.7,3.4-2c1.6-0.3,2.9,0,3.8,0.7C142.8,223.8,143.5,225.1,143.8,226.8z M136.3,228.1
			c0.2,1.1,0.6,2,1.1,2.5c0.5,0.5,1.2,0.7,2.1,0.5c1.7-0.3,2.4-1.6,2-3.9c-0.4-2.3-1.5-3.3-3.2-3c-0.9,0.1-1.5,0.5-1.8,1.2
			C136.2,226,136.1,226.9,136.3,228.1z"/>
		<path d="M149.1,226.6l1.1,3.8l-2.1,0.6l-2.9-10l2.9-0.8c1.4-0.4,2.4-0.4,3.2-0.1c0.8,0.3,1.3,1,1.6,2c0.2,0.6,0.2,1.2,0,1.7
			c-0.2,0.5-0.5,1-1.1,1.5c2.2,1.8,3.6,3,4.2,3.5l-2.3,0.7l-3.5-3.1L149.1,226.6z M148.6,224.9l0.7-0.2c0.7-0.2,1.1-0.5,1.4-0.8
			c0.3-0.3,0.3-0.7,0.2-1.2c-0.1-0.5-0.4-0.8-0.8-0.9s-0.9-0.1-1.6,0.1l-0.6,0.2L148.6,224.9z"/>
		<path d="M162.3,226.2l-2,0.8l-3.2-7.9l-2.6,1.1l-0.7-1.7l7.3-2.9l0.7,1.7l-2.6,1.1L162.3,226.2z"/>
		<path d="M175.2,219.8l-1.9,1.1l-4.3-7.4l-2.4,1.4l-0.9-1.6l6.8-3.9l0.9,1.6l-2.4,1.4L175.2,219.8z"/>
		<path d="M185,213.3l-4.9,3.5l-6-8.5l4.9-3.5l1,1.5l-3.1,2.2l1.3,1.9l2.9-2l1,1.5l-2.9,2l1.5,2.2l3.1-2.2L185,213.3z"/>
		<path d="M192.5,207l-2.2-1.4l-2.9,2.5l1.1,2.4l-1.8,1.6l-4.1-10.3l2-1.8l9.6,5.4L192.5,207z M188.7,204.6c-2-1.2-3.1-1.9-3.4-2.1
			c-0.3-0.2-0.5-0.3-0.6-0.4c0.3,0.6,0.9,2,1.9,4.3L188.7,204.6z"/>
		<path d="M199.3,200.1l-7.8-3.5l0,0c1.3,1,2.2,1.7,2.6,2.1l3.6,3.2l-1.3,1.5l-7.8-6.9l2-2.2l7.6,3.4l0,0l-4.2-7.2l2-2.2l7.8,6.9
			l-1.4,1.5l-3.7-3.3c-0.2-0.2-0.4-0.3-0.6-0.5s-0.8-0.8-1.7-1.7l0,0l4.3,7.4L199.3,200.1z"/>
	</g>
</g>
<g>
	<path d="M72.8,93.4c0,4.4-1.1,7.6-3.4,9.9c-2.3,2.2-5.6,3.3-10.1,3.3h-6.2V80.6h7c4.1,0,7.3,1.1,9.4,3.2
		C71.7,86.1,72.8,89.2,72.8,93.4z M70.8,93.4c0-3.7-0.9-6.5-2.8-8.4c-1.9-1.9-4.7-2.8-8.3-2.8h-4.8V105h4.3
		C66.9,105,70.8,101.1,70.8,93.4z"/>
	<path d="M81.3,95.3v11.3h-1.8V80.6h6.2c3.2,0,5.6,0.6,7.1,1.8c1.5,1.2,2.3,3,2.3,5.4c0,1.7-0.5,3.2-1.4,4.4
		c-0.9,1.2-2.3,2.1-4.2,2.6l7,11.8h-2.2l-6.7-11.3H81.3z M81.3,93.7h4.9c2.2,0,3.9-0.5,5.1-1.5c1.2-1,1.8-2.4,1.8-4.3
		c0-2-0.6-3.4-1.8-4.3c-1.2-0.9-3.1-1.3-5.8-1.3h-4.3V93.7z"/>
	<path d="M112.8,81.9c-3.3,0-5.8,1-7.7,3.1s-2.8,4.9-2.8,8.5c0,3.7,0.9,6.6,2.6,8.6c1.8,2,4.3,3.1,7.6,3.1c2.2,0,4.2-0.3,6-0.8v1.6
		c-1.7,0.6-3.9,0.9-6.4,0.9c-3.6,0-6.5-1.2-8.6-3.5c-2.1-2.4-3.1-5.6-3.1-9.9c0-2.6,0.5-5,1.5-7c1-2,2.4-3.6,4.3-4.7
		c1.9-1.1,4.1-1.6,6.5-1.6c2.5,0,4.8,0.5,6.8,1.4l-0.7,1.6C116.9,82.4,114.9,81.9,112.8,81.9z"/>
	<path d="M125.1,106.6V80.6h1.8v25.9H125.1z"/>
	<path d="M149.3,99.9c0,2.2-0.8,3.9-2.4,5.1c-1.6,1.3-3.7,1.9-6.3,1.9c-3.2,0-5.6-0.3-7.3-1v-1.8c1.9,0.8,4.2,1.2,7.1,1.2
		c2.1,0,3.8-0.5,5.1-1.5c1.2-1,1.9-2.3,1.9-3.8c0-1-0.2-1.8-0.6-2.4c-0.4-0.6-1.1-1.2-2-1.8c-0.9-0.5-2.3-1.1-4.1-1.7
		c-2.6-0.9-4.5-1.9-5.5-3c-1-1.1-1.5-2.5-1.5-4.2c0-1.9,0.8-3.5,2.3-4.7c1.5-1.2,3.5-1.8,5.9-1.8c2.4,0,4.7,0.5,6.9,1.4l-0.7,1.6
		c-2.2-0.9-4.2-1.3-6.2-1.3c-1.9,0-3.4,0.4-4.6,1.3c-1.1,0.9-1.7,2.1-1.7,3.6c0,1,0.2,1.7,0.5,2.4s0.9,1.2,1.7,1.7s2.2,1.1,4.1,1.8
		c2,0.7,3.5,1.4,4.6,2s1.8,1.4,2.2,2.2C149,97.7,149.3,98.7,149.3,99.9z"/>
	<path d="M169.8,99.9c0,2.2-0.8,3.9-2.4,5.1c-1.6,1.3-3.7,1.9-6.3,1.9c-3.2,0-5.6-0.3-7.3-1v-1.8c1.9,0.8,4.2,1.2,7.1,1.2
		c2.1,0,3.8-0.5,5.1-1.5c1.2-1,1.9-2.3,1.9-3.8c0-1-0.2-1.8-0.6-2.4c-0.4-0.6-1.1-1.2-2-1.8c-0.9-0.5-2.3-1.1-4.1-1.7
		c-2.6-0.9-4.5-1.9-5.5-3c-1-1.1-1.5-2.5-1.5-4.2c0-1.9,0.8-3.5,2.3-4.7c1.5-1.2,3.5-1.8,5.9-1.8c2.4,0,4.7,0.5,6.9,1.4l-0.7,1.6
		c-2.2-0.9-4.2-1.3-6.2-1.3c-1.9,0-3.4,0.4-4.6,1.3c-1.1,0.9-1.7,2.1-1.7,3.6c0,1,0.2,1.7,0.5,2.4s0.9,1.2,1.7,1.7s2.2,1.1,4.1,1.8
		c2,0.7,3.5,1.4,4.6,2s1.8,1.4,2.2,2.2C169.5,97.7,169.8,98.7,169.8,99.9z"/>
	<path d="M182.7,106.6h-1.8V82.3h-8.4v-1.7h18.7v1.7h-8.4V106.6z"/>
</g>
<g>
	<path d="M107.2,122.8H104l1.4-6.4h3.2l-0.1,0.7h-2.5l-0.4,2.1h2.3l-0.1,0.7h-2.3l-0.5,2.4h2.5L107.2,122.8z"/>
	<path d="M112.4,120.9c0,0.6-0.2,1.1-0.6,1.4c-0.4,0.3-1,0.5-1.7,0.5c-0.3,0-0.6,0-0.8-0.1c-0.2,0-0.5-0.1-0.7-0.2v-0.7
		c0.5,0.2,1,0.4,1.5,0.4c0.5,0,0.9-0.1,1.1-0.3s0.4-0.5,0.4-0.9c0-0.2-0.1-0.4-0.2-0.6c-0.2-0.2-0.4-0.4-0.9-0.6
		c-0.4-0.2-0.8-0.5-0.9-0.7c-0.2-0.2-0.3-0.5-0.3-0.9c0-0.5,0.2-1,0.6-1.3c0.4-0.3,0.9-0.5,1.5-0.5c0.3,0,0.6,0,0.8,0.1
		c0.3,0.1,0.5,0.2,0.8,0.3l-0.3,0.7c-0.2-0.1-0.4-0.2-0.7-0.3s-0.5-0.1-0.7-0.1c-0.4,0-0.7,0.1-0.9,0.3c-0.2,0.2-0.4,0.5-0.4,0.8
		c0,0.2,0,0.3,0.1,0.4s0.1,0.2,0.2,0.3s0.3,0.2,0.6,0.4c0.4,0.3,0.7,0.5,0.9,0.6c0.2,0.1,0.3,0.3,0.3,0.5
		C112.4,120.5,112.4,120.7,112.4,120.9z"/>
	<path d="M115.2,122.8h-0.8l1.2-5.8h-1.8l0.1-0.7h4.3l-0.1,0.7h-1.8L115.2,122.8z"/>
	<path d="M117.9,122.4c0-0.2,0.1-0.4,0.2-0.5c0.1-0.1,0.3-0.2,0.5-0.2c0.1,0,0.2,0,0.3,0.1c0.1,0.1,0.1,0.2,0.1,0.3
		c0,0.2-0.1,0.4-0.2,0.5c-0.1,0.1-0.3,0.2-0.5,0.2c-0.1,0-0.2,0-0.3-0.1S117.9,122.6,117.9,122.4z"/>
	<path d="M125.3,122.8h-0.8l0.9-4c0.2-0.8,0.3-1.3,0.4-1.6c-0.1,0.2-0.4,0.3-0.6,0.5l-0.8,0.5l-0.4-0.6l2-1.2h0.7L125.3,122.8z"/>
	<path d="M132.5,118.2c0,0.6-0.1,1.2-0.2,1.8c-0.2,0.6-0.4,1.2-0.6,1.6c-0.3,0.4-0.6,0.8-1,1s-0.8,0.3-1.3,0.3c-0.4,0-0.8,0-1.1-0.1
		V122c0.4,0.1,0.8,0.2,1.1,0.2c0.6,0,1.1-0.2,1.4-0.6c0.4-0.4,0.6-1.1,0.8-1.9h0c-0.1,0.2-0.3,0.4-0.6,0.5c-0.2,0.1-0.5,0.2-0.8,0.2
		c-0.5,0-0.9-0.1-1.1-0.4c-0.3-0.3-0.4-0.7-0.4-1.3c0-0.4,0.1-0.9,0.3-1.2c0.2-0.4,0.5-0.7,0.8-0.9c0.3-0.2,0.7-0.3,1.1-0.3
		c0.5,0,0.9,0.2,1.2,0.5C132.4,117.1,132.5,117.6,132.5,118.2z M130.9,116.9c-0.4,0-0.8,0.2-1.1,0.5s-0.4,0.8-0.4,1.3
		c0,0.4,0.1,0.6,0.2,0.8c0.2,0.2,0.4,0.3,0.7,0.3c0.2,0,0.4,0,0.6-0.1c0.2-0.1,0.3-0.2,0.5-0.4c0.1-0.2,0.2-0.3,0.3-0.5
		c0.1-0.2,0.1-0.4,0.1-0.7c0-0.4-0.1-0.7-0.3-0.9C131.4,117,131.2,116.9,130.9,116.9z"/>
	<path d="M137.7,118.2c0,0.6-0.1,1.2-0.2,1.8c-0.2,0.6-0.4,1.2-0.6,1.6c-0.3,0.4-0.6,0.8-1,1s-0.8,0.3-1.3,0.3c-0.4,0-0.8,0-1.1-0.1
		V122c0.4,0.1,0.8,0.2,1.1,0.2c0.6,0,1.1-0.2,1.4-0.6c0.4-0.4,0.6-1.1,0.8-1.9h0c-0.1,0.2-0.3,0.4-0.6,0.5c-0.2,0.1-0.5,0.2-0.8,0.2
		c-0.5,0-0.9-0.1-1.1-0.4c-0.3-0.3-0.4-0.7-0.4-1.3c0-0.4,0.1-0.9,0.3-1.2c0.2-0.4,0.5-0.7,0.8-0.9c0.3-0.2,0.7-0.3,1.1-0.3
		c0.5,0,0.9,0.2,1.2,0.5C137.5,117.1,137.7,117.6,137.7,118.2z M136,116.9c-0.4,0-0.8,0.2-1.1,0.5s-0.4,0.8-0.4,1.3
		c0,0.4,0.1,0.6,0.2,0.8c0.2,0.2,0.4,0.3,0.7,0.3c0.2,0,0.4,0,0.6-0.1c0.2-0.1,0.3-0.2,0.5-0.4c0.1-0.2,0.2-0.3,0.3-0.5
		c0.1-0.2,0.1-0.4,0.1-0.7c0-0.4-0.1-0.7-0.3-0.9C136.5,117,136.3,116.9,136,116.9z"/>
	<path d="M140.7,122.8H140l0.9-4c0.2-0.8,0.3-1.3,0.4-1.6c-0.1,0.2-0.4,0.3-0.6,0.5l-0.8,0.5l-0.4-0.6l2-1.2h0.7L140.7,122.8z"/>
</g>
</svg>
